<?xml version="1.0" standalone="no"?>
<!DOCTYPE svg PUBLIC "-//W3C//DTD SVG 20010904//EN"
 "http://www.w3.org/TR/2001/REC-SVG-20010904/DTD/svg10.dtd">
<svg version="1.0" xmlns="http://www.w3.org/2000/svg"
 width="600.000000pt" height="600.000000pt" viewBox="0 0 600.000000 600.000000"
 preserveAspectRatio="xMidYMid meet">
<metadata>
Created by potrace 1.11, written by Peter Selinger 2001-2013
</metadata>
<g transform="translate(0.000000,600.000000) scale(0.100000,-0.100000)"
fill="#000000" stroke="none">
<path d="M430 3480 c0 -40 4 -70 10 -70 6 0 10 14 10 30 0 28 3 30 35 30 32 0
35 -2 35 -30 0 -16 5 -30 10 -30 6 0 10 30 10 70 0 40 -4 70 -10 70 -5 0 -10
-13 -10 -30 0 -28 -3 -30 -35 -30 -32 0 -35 2 -35 30 0 17 -4 30 -10 30 -6 0
-10 -30 -10 -70z"/>
<path d="M570 3480 l0 -70 50 0 c28 0 50 5 50 10 0 6 -18 10 -40 10 -33 0 -40
3 -40 20 0 16 7 20 34 20 19 0 38 5 41 10 4 6 -10 10 -34 10 -34 0 -41 3 -41
20 0 17 7 20 40 20 22 0 40 5 40 10 0 6 -22 10 -50 10 l-50 0 0 -70z"/>
<path d="M727 3533 c-2 -10 -14 -42 -26 -70 -21 -53 -15 -76 7 -28 9 19 19 25
42 25 23 0 31 -5 36 -25 3 -14 10 -25 15 -25 13 0 12 2 -17 75 -26 64 -47 82
-57 48z m43 -55 c0 -5 -11 -8 -24 -8 -23 0 -24 2 -13 30 l11 30 13 -23 c7 -12
12 -25 13 -29z"/>
<path d="M830 3480 l0 -70 33 0 c51 0 77 24 77 70 0 46 -26 70 -77 70 l-33 0
0 -70z m90 25 c15 -40 -3 -75 -40 -75 -29 0 -30 1 -30 50 0 49 1 50 30 50 23
0 33 -6 40 -25z"/>
<path d="M650 3220 c0 -127 -2 -150 -15 -150 -19 0 -19 -1 7 -55 l22 -46 23
43 c27 52 27 58 8 58 -13 0 -15 23 -15 150 0 127 -2 150 -15 150 -13 0 -15
-23 -15 -150z"/>
<path d="M5255 3290 c3 -5 15 -10 26 -10 17 0 19 -7 19 -60 0 -33 4 -60 10
-60 6 0 10 27 10 60 0 53 2 60 19 60 11 0 23 5 26 10 4 6 -17 10 -55 10 -38 0
-59 -4 -55 -10z"/>
<path d="M5407 3283 c-2 -10 -14 -42 -26 -70 -21 -53 -15 -76 7 -28 9 19 19
25 42 25 23 0 31 -5 36 -25 3 -14 10 -25 15 -25 13 0 12 2 -17 75 -26 64 -47
82 -57 48z m43 -55 c0 -5 -11 -8 -24 -8 -23 0 -24 2 -13 30 l11 30 13 -23 c7
-12 12 -25 13 -29z"/>
<path d="M5510 3230 c0 -40 4 -70 10 -70 6 0 10 30 10 70 0 40 -4 70 -10 70
-6 0 -10 -30 -10 -70z"/>
<path d="M5570 3230 l0 -70 40 0 c22 0 40 5 40 10 0 6 -13 10 -30 10 l-30 0 0
60 c0 33 -4 60 -10 60 -6 0 -10 -30 -10 -70z"/>
<path d="M5350 3095 c0 -16 -6 -25 -15 -25 -19 0 -19 -6 8 -58 l23 -43 22 46
c26 54 26 55 7 55 -9 0 -15 9 -15 25 0 16 -6 25 -15 25 -9 0 -15 -9 -15 -25z"/>
<path d="M290 2495 l0 -385 385 0 385 0 0 385 0 385 -385 0 -385 0 0 -385z
m750 0 l0 -365 -365 0 -365 0 0 365 0 365 365 0 365 0 0 -365z"/>
<path d="M652 2538 c-17 -17 -15 -33 3 -18 13 11 15 6 15 -39 0 -38 -4 -51
-14 -51 -8 0 -18 -4 -21 -10 -4 -6 12 -10 39 -10 25 0 46 5 46 10 0 6 -7 10
-15 10 -12 0 -15 13 -15 60 0 61 -11 75 -38 48z"/>
<path d="M1790 2495 l0 -385 385 0 385 0 0 385 0 385 -385 0 -385 0 0 -385z
m750 0 l0 -365 -365 0 -365 0 0 365 0 365 365 0 365 0 0 -365z"/>
<path d="M2140 2535 c-7 -9 -9 -19 -5 -23 4 -4 10 -1 12 6 3 6 16 12 29 12 35
0 30 -28 -11 -66 -47 -42 -45 -54 10 -54 25 0 45 5 45 10 0 6 -14 10 -31 10
l-31 0 31 35 c17 20 31 41 31 48 0 35 -57 50 -80 22z"/>
<path d="M3290 2495 l0 -385 385 0 385 0 0 385 0 385 -385 0 -385 0 0 -385z
m750 0 l0 -365 -365 0 -365 0 0 365 0 365 365 0 365 0 0 -365z"/>
<path d="M3640 2535 c-7 -9 -9 -19 -5 -23 4 -4 10 -1 12 6 3 6 16 12 29 12 30
0 33 -30 4 -37 -11 -3 -20 -9 -20 -14 0 -5 9 -9 20 -9 13 0 20 -7 20 -20 0
-14 -7 -20 -24 -20 -13 0 -26 6 -29 13 -2 6 -8 9 -12 5 -14 -13 18 -39 43 -36
33 4 51 32 36 55 -8 13 -8 23 -1 35 23 36 -45 67 -73 33z"/>
<path d="M4790 2495 l0 -385 385 0 385 0 0 385 0 385 -385 0 -385 0 0 -385z
m750 0 l0 -365 -365 0 -365 0 0 365 0 365 365 0 365 0 0 -365z"/>
<path d="M5152 2500 l-32 -50 35 0 c28 0 35 -4 35 -20 0 -11 5 -20 10 -20 6 0
10 9 10 19 0 11 6 22 13 24 10 4 10 6 0 6 -9 1 -13 17 -13 46 0 59 -16 58 -58
-5z m38 -10 c0 -23 -4 -30 -20 -30 -24 0 -25 4 -4 35 21 32 24 31 24 -5z"/>
<path d="M1162 2616 l-64 -22 73 -23 c50 -16 74 -20 77 -12 3 8 77 11 253 11
l249 0 0 25 0 25 -250 0 c-160 0 -250 4 -250 10 0 14 -16 12 -88 -14z"/>
<path d="M2662 2616 l-64 -22 73 -23 c50 -16 74 -20 77 -12 3 8 77 11 253 11
l249 0 0 25 0 25 -250 0 c-160 0 -250 4 -250 10 0 14 -16 12 -88 -14z"/>
<path d="M4162 2616 l-64 -22 73 -23 c50 -16 74 -20 77 -12 3 8 77 11 253 11
l249 0 0 25 0 25 -250 0 c-160 0 -250 4 -250 10 0 14 -16 12 -88 -14z"/>
<path d="M1600 2430 c0 -6 -90 -10 -250 -10 l-250 0 0 -25 0 -25 249 0 c176 0
250 -3 253 -11 3 -8 27 -4 77 12 l72 23 -67 23 c-77 26 -84 27 -84 13z"/>
<path d="M3100 2430 c0 -6 -90 -10 -250 -10 l-250 0 0 -25 0 -25 249 0 c176 0
250 -3 253 -11 3 -8 27 -4 77 12 l72 23 -67 23 c-77 26 -84 27 -84 13z"/>
<path d="M4600 2430 c0 -6 -90 -10 -250 -10 l-250 0 0 -25 0 -25 249 0 c176 0
250 -3 253 -11 3 -8 27 -4 77 12 l72 23 -67 23 c-77 26 -84 27 -84 13z"/>
</g>
</svg>
